<svg width="50" height="50" viewBox="0 0 40 40" fill="none" xmlns="http://www.w3.org/2000/svg">
<path d="M20 35C17.8949 33.2044 15.9436 31.2359 14.1667 29.115C11.5 25.93 8.33333 21.1867 8.33333 16.6667C8.33097 11.9459 11.1737 7.68898 15.5351 5.88233C19.8965 4.07567 24.9168 5.0754 28.2533 8.415C30.4474 10.5993 31.6765 13.5706 31.6667 16.6667C31.6667 21.1867 28.5 25.93 25.8333 29.115C24.0564 31.2359 22.1051 33.2044 20 35ZM20 8.33333C15.3999 8.33884 11.6722 12.0666 11.6667 16.6667C11.6667 18.61 12.545 21.975 16.725 26.9767C17.7552 28.2068 18.8484 29.3828 20 30.5C21.1517 29.3841 22.2454 28.2098 23.2767 26.9817C27.455 21.9733 28.3333 18.6083 28.3333 16.6667C28.3278 12.0666 24.6001 8.33884 20 8.33333ZM20 21.6667C17.2386 21.6667 15 19.4281 15 16.6667C15 13.9052 17.2386 11.6667 20 11.6667C22.7614 11.6667 25 13.9052 25 16.6667C25 17.9927 24.4732 19.2645 23.5355 20.2022C22.5979 21.1399 21.3261 21.6667 20 21.6667Z" fill="#C4C4C4"/>
</svg>
