<svg width="64" height="64" viewBox="0 0 64 64" fill="none" xmlns="http://www.w3.org/2000/svg">
<path d="M49.8053 52.2853L34.5653 37.0426C27.7858 41.8625 18.4438 40.6836 13.0743 34.3304C7.70481 27.9773 8.09908 18.5695 13.9813 12.688C19.862 6.80383 29.2707 6.40785 35.625 11.7771C41.9793 17.1463 43.159 26.4892 38.3387 33.2693L53.5787 48.512L49.808 52.2826L49.8053 52.2853ZM25.2933 13.3333C20.2365 13.3321 15.8738 16.8818 14.8466 21.8331C13.8193 26.7845 16.4099 31.7767 21.0498 33.7873C25.6897 35.7978 31.1037 34.2742 34.014 30.1388C36.9242 26.0034 36.5308 20.3928 33.072 16.704L34.6853 18.304L32.8667 16.4906L32.8347 16.4586C30.8394 14.4511 28.1237 13.3256 25.2933 13.3333Z" fill="#B4B4B4"/>
</svg>
