<svg width="50" height="50" viewBox="0 0 50 50" fill="none" xmlns="http://www.w3.org/2000/svg">
<path d="M38.8175 45H10.1825C8.97716 45 8 44.0161 8 42.8024V26.7598C8 26.1267 8.27133 25.5245 8.74425 25.1072L12.3651 21.9251V7.19761C12.3651 5.9839 13.3422 5 14.5476 5H38.8175C40.0228 5 41 5.9839 41 7.19761V42.8024C41 44.0161 40.0228 45 38.8175 45ZM21.0952 14.9565C21.6237 14.9571 22.134 15.1508 22.5313 15.5015L33.444 25.116C33.9155 25.5308 34.1873 26.1295 34.1905 26.7598V40.6048H36.6349V9.39522H16.7302V18.0793L19.6569 15.4993C20.0552 15.1489 20.5663 14.956 21.0952 14.9565ZM18.9127 34.012H23.2778V40.6048H29.8254V27.7642L21.0952 20.0725L12.3651 27.7642V40.6048H18.9127V34.012Z" fill="#C2C2C2"/>
</svg>
