<svg width="50" height="50" viewBox="0 0 50 50" fill="none" xmlns="http://www.w3.org/2000/svg">
<path d="M27.0833 43.75H10.4167C8.11548 43.75 6.25 41.8845 6.25 39.5833V10.4167C6.25 8.11548 8.11548 6.25 10.4167 6.25H39.5833C41.8845 6.25 43.75 8.11548 43.75 10.4167V27.0833C43.7491 27.1074 43.7449 27.1312 43.7375 27.1542C43.7315 27.1732 43.7273 27.1927 43.725 27.2125C43.7132 27.3962 43.6775 27.5776 43.6187 27.7521L43.6 27.8083C43.586 27.8554 43.5686 27.9013 43.5479 27.9458C43.447 28.1728 43.3059 28.3796 43.1313 28.5562L28.5479 43.1396C28.1594 43.5283 27.6329 43.7477 27.0833 43.75ZM10.4167 10.4167V39.5833H25V27.0833C25 25.9327 25.9327 25 27.0833 25H39.5833V10.4167H10.4167ZM29.1667 29.1667V36.6396L36.6375 29.1667H29.1667Z" fill="#C2C2C2"/>
</svg>
