<svg width="50" height="50" viewBox="0 0 50 50" fill="none" xmlns="http://www.w3.org/2000/svg">
<path d="M33.3334 41.6667H10.4167C9.26611 41.6667 8.33337 40.7339 8.33337 39.5834V23.2084C8.33337 22.6681 8.54328 22.1489 8.91879 21.7604L20.3771 9.88544C20.7697 9.47869 21.3108 9.24896 21.8761 9.24896C22.4414 9.24896 22.9824 9.47869 23.375 9.88544L29.2084 15.9271L26.2292 18.8479L21.875 14.3334L12.5 24.0417V37.4896H35.4167V39.5729C35.4195 40.1273 35.2012 40.6599 34.8102 41.0528C34.4192 41.4458 33.8877 41.6667 33.3334 41.6667ZM29.7667 33.3334L24.1292 27.7084L27.0834 24.7542L29.775 27.4438L38.7334 18.5021L41.6667 21.4542L29.7667 33.3292V33.3334Z" fill="#C2C2C2"/>
</svg>
