<svg width="50" height="50" viewBox="0 0 50 50" fill="none" xmlns="http://www.w3.org/2000/svg">
<path d="M25.0003 45.8334C13.4944 45.8334 4.16699 36.506 4.16699 25.0001C4.16699 13.4941 13.4944 4.16675 25.0003 4.16675C36.5063 4.16675 45.8337 13.4941 45.8337 25.0001C45.821 36.5008 36.501 45.8208 25.0003 45.8334ZM8.33366 25.3584C8.43223 34.5277 15.9193 41.895 25.0889 41.8459C34.2586 41.7964 41.666 34.349 41.666 25.1792C41.666 16.0095 34.2586 8.56211 25.0889 8.51258C15.9193 8.46353 8.43223 15.8308 8.33366 25.0001V25.3584ZM29.167 35.4167H22.917V27.0834H20.8337V22.9167H27.0837V31.2501H29.167V35.4167ZM27.0837 18.7501H22.917V14.5834H27.0837V18.7501Z" fill="#C2C2C2"/>
</svg>
