<svg width="50" height="50" viewBox="0 0 50 50" fill="none" xmlns="http://www.w3.org/2000/svg">
<path d="M15 44H10C10 35.6053 16.7157 28.8 25 28.8C33.2843 28.8 40 35.6053 40 44H35C35 38.4035 30.5228 33.8667 25 33.8667C19.4772 33.8667 15 38.4035 15 44ZM25 26.2667C19.4772 26.2667 15 21.7298 15 16.1333C15 10.5368 19.4772 6 25 6C30.5228 6 35 10.5368 35 16.1333C34.9931 21.7269 30.52 26.2597 25 26.2667ZM25 11.0667C22.2685 11.0695 20.0447 13.2931 20.0056 16.0607C19.9664 18.8284 22.1264 21.1156 24.8567 21.1978C27.587 21.2799 29.8771 19.1265 30 16.3613V17.3747V16.1333C30 13.3351 27.7614 11.0667 25 11.0667Z" fill="#C2C2C2"/>
</svg>
