<svg width="50" height="50" viewBox="0 0 50 50" fill="none" xmlns="http://www.w3.org/2000/svg">
<path d="M25.0003 45.8333C13.4944 45.8333 4.16699 36.5059 4.16699 25C4.16699 13.4941 13.4944 4.16666 25.0003 4.16666C36.5063 4.16666 45.8337 13.4941 45.8337 25C45.821 36.5007 36.501 45.8207 25.0003 45.8333ZM24.967 41.6667H25.0003C34.2018 41.6575 41.6549 34.1932 41.6503 24.9917C41.6457 15.7902 34.1851 8.33334 24.9837 8.33334C15.7822 8.33334 8.32159 15.7902 8.31699 24.9917C8.31239 34.1932 15.7655 41.6575 24.967 41.6667ZM20.8337 35.4167L12.5003 27.0833L15.4378 24.1458L20.8337 29.5208L34.5628 15.7917L37.5003 18.75L20.8337 35.4167Z" fill="#C4C4C4"/>
</svg>
