<svg width="50" height="50" viewBox="0 0 50 50" fill="none" xmlns="http://www.w3.org/2000/svg">
<path d="M17.6356 42.7813C13.4227 42.7813 9.6247 40.2436 8.01225 36.3515C6.3998 32.4595 7.29044 27.9794 10.2689 25L14.6897 20.5792L17.6356 23.525L13.2168 27.9437C11.6378 29.5228 11.0211 31.8243 11.5991 33.9813C12.177 36.1383 13.8619 37.8231 16.0189 38.4011C18.1759 38.9791 20.4774 38.3624 22.0564 36.7833L26.4752 32.3646L29.421 35.3125L25.0022 39.7312C23.0524 41.6907 20.3999 42.7889 17.6356 42.7813ZM19.1085 33.8375L16.1627 30.8917L30.8939 16.1604L33.8397 19.1062L19.1106 33.8354L19.1085 33.8375ZM35.3147 29.4187L32.3668 26.4729L36.7856 22.0542C38.3861 20.4798 39.0193 18.168 38.4444 15.9979C37.8695 13.8277 36.1748 12.1326 34.0048 11.5572C31.8347 10.9817 29.5228 11.6144 27.9481 13.2146L23.5272 17.6333L20.5814 14.6875L25.0022 10.2667C29.0753 6.22909 35.6459 6.24348 39.7013 10.2989C43.7567 14.3542 43.7711 20.9248 39.7335 24.9979L35.3147 29.4167V29.4187Z" fill="#C2C2C2"/>
</svg>
