<svg width="45" height="46" viewBox="0 0 45 46" fill="none" xmlns="http://www.w3.org/2000/svg">
<path d="M8.28186 29.3583C10.3475 29.3524 12.3351 28.6068 13.8484 27.2701L28.6327 35.3018C27.6087 39.1061 29.6777 43.0482 33.4906 44.5577C37.3035 46.0673 41.7039 44.6864 43.8225 41.3155C45.9412 37.9446 45.1355 33.6061 41.9308 31.1288C38.7261 28.6515 34.0944 28.7868 31.0558 31.4465L16.2715 23.4147C16.4265 22.8513 16.5121 22.2726 16.5266 21.6903L31.0534 13.7978C33.9368 16.29 38.2623 16.5211 41.4212 14.3516C44.5802 12.1822 45.7087 8.2055 44.1263 4.81979C42.5439 1.43409 38.6832 -0.434812 34.8726 0.340205C31.062 1.11522 28.3434 4.32223 28.3563 8.02713C28.3648 8.67398 28.4576 9.31733 28.6327 9.94244L15.2087 17.2332C13.0584 14.0704 8.85038 12.8025 5.17648 14.2105C1.50258 15.6184 -0.604307 19.3064 0.153492 23.0029C0.911292 26.6994 4.32073 29.3651 8.28186 29.3583Z" fill="#0D99FF"/>
</svg>
