<svg width="50" height="50" viewBox="0 0 50 50" fill="none" xmlns="http://www.w3.org/2000/svg">
<path d="M32.1442 24.218C30.9537 29.0615 30.9537 31.4833 25.0013 33.2997C19.0489 31.4833 19.0489 29.0615 17.8584 24.218C21.4298 26.6398 22.6203 25.4289 25.0013 30.2724C27.3822 25.4289 28.5727 26.6398 32.1442 24.218Z" fill="#FBB41A"/>
<path d="M32.1442 16.9526C30.9537 21.7962 30.9537 24.218 25.0013 26.0343C19.0489 24.218 19.0489 21.7962 17.8584 16.9526C21.4298 19.3744 22.6203 18.1635 25.0013 23.0071C27.3822 18.1635 28.5727 19.3744 32.1442 16.9526Z" fill="#FBB41A"/>
<path d="M30.9526 10.8981C29.9606 14.773 29.9606 16.7104 25.0002 18.1635C20.0399 16.7104 20.0399 14.773 19.0479 10.8981C22.024 12.8355 23.0161 11.8668 25.0002 15.7417C26.9844 11.8668 27.9764 12.8355 30.9526 10.8981Z" fill="#FBB41A"/>
<path d="M22.6211 5.67608C22.6211 3.63269 22.6211 2.60094 25.0021 0C27.0844 2.60094 27.383 3.63269 27.383 5.67608C27.383 7.90332 27.0844 8.32301 25.0021 10.8981C23.117 8.32301 22.6211 7.71948 22.6211 5.67608Z" fill="#FBB41A"/>
<path d="M25.001 32.0888V40.5651" stroke="#FCB41C" stroke-width="2"/>
<path d="M49.9997 32.2906C48.71 37.5378 48.71 40.1614 42.2616 42.1291C35.8131 40.1614 35.8131 37.5378 34.5234 32.2906C38.3925 34.9142 39.6822 33.6024 42.2616 38.8496C44.8409 33.6024 46.1306 34.9142 49.9997 32.2906Z" fill="#FBB41A"/>
<path d="M49.9997 24.4197C48.71 29.6669 48.71 32.2906 42.2616 34.2583C35.8131 32.2906 35.8131 29.6669 34.5234 24.4197C38.3925 27.0433 39.6822 25.7315 42.2616 30.9788C44.8409 25.7315 46.1306 27.0433 49.9997 24.4197Z" fill="#FBB41A"/>
<path d="M48.7094 17.8607C47.6346 22.0585 47.6346 24.1574 42.2609 25.7316C36.8872 24.1574 36.8872 22.0585 35.8125 17.8607C39.0367 19.9596 40.1115 18.9102 42.2609 23.1079C44.4104 18.9102 45.4851 19.9596 48.7094 17.8607Z" fill="#FBB41A"/>
<path d="M39.6807 12.2036C39.6807 9.98989 39.6807 8.87216 42.26 6.05447C44.5159 8.87216 44.8394 9.98989 44.8394 12.2036C44.8394 14.6164 44.5159 15.0711 42.26 17.8607C40.2179 15.0711 39.6807 14.4172 39.6807 12.2036Z" fill="#FBB41A"/>
<path d="M42.2607 40.8173V50" stroke="#FCB41C" stroke-width="2"/>
<path d="M15.4762 32.2906C14.1865 37.5378 14.1865 40.1614 7.73812 42.1291C1.28969 40.1614 1.28969 37.5378 0 32.2906C3.86906 34.9142 5.15874 33.6024 7.73812 38.8496C10.3175 33.6024 11.6072 34.9142 15.4762 32.2906Z" fill="#FBB41A"/>
<path d="M15.4762 24.4197C14.1865 29.6669 14.1865 32.2906 7.73812 34.2583C1.28969 32.2906 1.28969 29.6669 0 24.4197C3.86906 27.0433 5.15874 25.7315 7.73812 30.9788C10.3175 25.7315 11.6072 27.0433 15.4762 24.4197Z" fill="#FBB41A"/>
<path d="M14.1859 17.8607C13.1112 22.0585 13.1112 24.1574 7.73749 25.7316C2.3638 24.1574 2.3638 22.0585 1.28906 17.8607C4.51328 19.9596 5.58802 18.9102 7.73749 23.1079C9.88697 18.9102 10.9617 19.9596 14.1859 17.8607Z" fill="#FBB41A"/>
<path d="M5.15723 12.2036C5.15723 9.98989 5.15723 8.87216 7.7366 6.05447C9.99244 8.87216 10.316 9.98989 10.316 12.2036C10.316 14.6164 9.99244 15.0711 7.7366 17.8607C5.69447 15.0711 5.15723 14.4172 5.15723 12.2036Z" fill="#FBB41A"/>
<path d="M7.7373 40.8173V50" stroke="#FCB41C" stroke-width="2"/>
</svg>
