<svg width="51" height="50" viewBox="0 0 51 50" fill="none" xmlns="http://www.w3.org/2000/svg">
<path d="M32.1432 24.218C30.9527 29.0616 30.9527 31.4834 25.0003 33.2997C19.0479 31.4834 19.0479 29.0616 17.8574 24.218C21.4289 26.6398 22.6193 25.4289 25.0003 30.2725C27.3813 25.4289 28.5717 26.6398 32.1432 24.218Z" fill="#FBB41A"/>
<path d="M32.1432 16.9526C30.9527 21.7962 30.9527 24.218 25.0003 26.0343C19.0479 24.218 19.0479 21.7962 17.8574 16.9526C21.4289 19.3744 22.6193 18.1635 25.0003 23.0071C27.3813 18.1635 28.5717 19.3744 32.1432 16.9526Z" fill="#FBB41A"/>
<path d="M30.9526 10.8981C29.9606 14.773 29.9606 16.7104 25.0003 18.1635C20.0399 16.7104 20.0399 14.773 19.0479 10.8981C22.0241 12.8356 23.0161 11.8668 25.0003 15.7417C26.9844 11.8668 27.9764 12.8356 30.9526 10.8981Z" fill="#FBB41A"/>
<path d="M22.6211 5.67609C22.6211 3.6327 22.6211 2.60094 25.0021 0C27.0844 2.60094 27.383 3.6327 27.383 5.67609C27.383 7.90333 27.0844 8.32301 25.0021 10.8981C23.117 8.32301 22.6211 7.71948 22.6211 5.67609Z" fill="#FBB41A"/>
<path d="M25.002 32.0888V40.5651" stroke="#FCB41C" stroke-width="2"/>
<path d="M50.0026 32.2906C48.7129 37.5378 48.7129 40.1614 42.2645 42.1291C35.8161 40.1614 35.8161 37.5378 34.5264 32.2906C38.3954 34.9142 39.6851 33.6024 42.2645 38.8496C44.8439 33.6024 46.1335 34.9142 50.0026 32.2906Z" fill="#FBB41A"/>
<path d="M50.0026 24.4197C48.7129 29.6669 48.7129 32.2906 42.2645 34.2583C35.8161 32.2906 35.8161 29.6669 34.5264 24.4197C38.3954 27.0433 39.6851 25.7315 42.2645 30.9788C44.8439 25.7315 46.1335 27.0433 50.0026 24.4197Z" fill="#FBB41A"/>
<path d="M48.7113 17.8607C47.6366 22.0585 47.6366 24.1574 42.2629 25.7316C36.8892 24.1574 36.8892 22.0585 35.8145 17.8607C39.0387 19.9596 40.1134 18.9102 42.2629 23.108C44.4124 18.9102 45.4871 19.9596 48.7113 17.8607Z" fill="#FBB41A"/>
<path d="M39.6836 12.2035C39.6836 9.98987 39.6836 8.87214 42.263 6.05445C44.5188 8.87214 44.8423 9.98987 44.8423 12.2035C44.8423 14.6164 44.5188 15.071 42.263 17.8607C40.2208 15.071 39.6836 14.4172 39.6836 12.2035Z" fill="#FBB41A"/>
<path d="M42.2646 40.8174V50" stroke="#FCB41C" stroke-width="2"/>
<path d="M15.4762 32.2906C14.1866 37.5378 14.1866 40.1614 7.73812 42.1291C1.28969 40.1614 1.28969 37.5378 0 32.2906C3.86906 34.9142 5.15875 33.6024 7.73812 38.8496C10.3175 33.6024 11.6072 34.9142 15.4762 32.2906Z" fill="#FBB41A"/>
<path d="M15.4762 24.4197C14.1866 29.667 14.1866 32.2906 7.73812 34.2583C1.28969 32.2906 1.28969 29.667 0 24.4197C3.86906 27.0433 5.15875 25.7315 7.73812 30.9788C10.3175 25.7315 11.6072 27.0433 15.4762 24.4197Z" fill="#FBB41A"/>
<path d="M14.185 17.8607C13.1102 22.0585 13.1102 24.1574 7.73652 25.7315C2.36282 24.1574 2.36282 22.0585 1.28809 17.8607C4.5123 19.9596 5.58704 18.9101 7.73652 23.1079C9.886 18.9101 10.9607 19.9596 14.185 17.8607Z" fill="#FBB41A"/>
<path d="M5.15723 12.2036C5.15723 9.98989 5.15723 8.87216 7.7366 6.05447C9.99244 8.87216 10.316 9.98989 10.316 12.2036C10.316 14.6164 9.99244 15.0711 7.7366 17.8607C5.69447 15.0711 5.15723 14.4172 5.15723 12.2036Z" fill="#FBB41A"/>
<path d="M7.73828 40.8173V50" stroke="#FCB41C" stroke-width="2"/>
</svg>
