<svg width="50" height="39" viewBox="0 0 50 39" fill="none" xmlns="http://www.w3.org/2000/svg">
<path d="M1 26.7516L5.94324 16.251L11 2.5L32 1L39 11.5L49 19L46.7249 29.3767L25.0983 38.1272H4.70743L1 26.7516Z" fill="#787878"/>
<path d="M1 26.7516L5.94324 16.251L11 2.5L32 1L39 11.5L49 19L46.7249 29.3767L25.0983 38.1272H4.70743L1 26.7516Z" fill="black" fill-opacity="0.2"/>
<path d="M11 2.5L5.94324 16.251L1 26.7516L4.70743 38.1272H25.0983M11 2.5L18.3013 11.0007M11 2.5L32 1L39 11.5M18.3013 11.0007L17 25M18.3013 11.0007L39 11.5M17 25L25.0983 38.1272M17 25L49 19M25.0983 38.1272L46.7249 29.3767L49 19M49 19L39 11.5" stroke="white"/>
</svg>
