<svg width="56" height="48" viewBox="0 0 56 48" fill="none" xmlns="http://www.w3.org/2000/svg">
<path d="M1 30.7516L5.94324 20.251V6.25028L28.1878 1L40.5459 11.5006V22.8761L46.7249 33.3767L25.0983 42.1272H4.70743L1 30.7516Z" fill="#505050"/>
<path d="M1 30.7516L5.94324 20.251V6.25028L28.1878 1L40.5459 11.5006V22.8761L46.7249 33.3767L25.0983 42.1272H4.70743L1 30.7516Z" fill="black" fill-opacity="0.2"/>
<path d="M5.94324 6.25028V20.251L1 30.7516L4.70743 42.1272H25.0983M5.94324 6.25028L18.3013 15.0007M5.94324 6.25028L28.1878 1L40.5459 11.5006M18.3013 15.0007V29.0015M18.3013 15.0007L40.5459 11.5006M18.3013 29.0015L25.0983 42.1272M18.3013 29.0015L40.5459 22.8761M25.0983 42.1272L46.7249 33.3767L40.5459 22.8761M40.5459 22.8761V11.5006" stroke="white"/>
<path d="M27.0467 39.7711L30.0941 33.5408L30.1512 25.1779L43.6934 22.2299L51.1621 28.6066L51.1158 35.4014L54.8288 41.7258L41.6479 46.7698L29.2538 46.5973L27.0467 39.7711Z" fill="#505050"/>
<path d="M27.0467 39.7711L30.0941 33.5408L30.1512 25.1779L43.6934 22.2299L51.1621 28.6066L51.1158 35.4014L54.8288 41.7258L41.6479 46.7698L29.2538 46.5973L27.0467 39.7711Z" fill="black" fill-opacity="0.2"/>
<path d="M30.1512 25.1779L30.0941 33.5408L27.0467 39.7711L29.2538 46.5973L41.6479 46.7698M30.1512 25.1779L37.6271 30.5092M30.1512 25.1779L43.6934 22.2299L51.1621 28.6066M37.6271 30.5092L37.57 38.8721M37.6271 30.5092L51.1621 28.6066M37.57 38.8721L41.6479 46.7698M37.57 38.8721L51.1158 35.4014M41.6479 46.7698L54.8288 41.7258L51.1158 35.4014M51.1158 35.4014L51.1621 28.6066" stroke="white"/>
</svg>
