<svg width="50" height="43" viewBox="0 0 50 43" fill="none" xmlns="http://www.w3.org/2000/svg">
<path d="M29.7024 25.0271C28.0853 33.0045 27.1969 37.6141 25.2381 43H23.2738C23.108 34.6363 21.9405 31.2737 20.0595 25.0271C16.5309 25.3271 14.4717 25.3908 8.39286 22.3894C2.91667 13.5563 0 0 0 0C0 0 13.2458 1.96794 18.9881 6.1341C23.2486 12.8195 23.3431 15.9956 22.5 21.408C20.4825 15.0305 18.9956 12.1448 13.631 12.2682C18.2667 14.7897 19.2728 17.9964 21.4286 23.3096L25.2381 32.9401C27.9761 23.3433 29.6657 18.0772 37.5 12.2682C34.7024 12.2682 31.0332 14.0081 27.0833 21.408C27.8856 7.06813 31.6644 1.47246 50 0C48.0806 8.12169 46.74 12.2975 43.75 19.077C40.3028 23.7042 38.0469 25.9327 29.7024 25.0271Z" fill="#A8DA81"/>
</svg>
